<?xml version="1.0" standalone="no"?>
<!DOCTYPE svg PUBLIC "-//W3C//DTD SVG 20010904//EN"
 "http://www.w3.org/TR/2001/REC-SVG-20010904/DTD/svg10.dtd">
<svg version="1.0" xmlns="http://www.w3.org/2000/svg"
 width="521.000000pt" height="116.000000pt" viewBox="0 0 521.000000 116.000000"
 preserveAspectRatio="xMidYMid meet">

<g transform="translate(0.000000,116.000000) scale(0.100000,-0.100000)"
fill="#cfcfcf" stroke="none">
<path d="M3345 997 c-40 -19 -65 -49 -74 -89 -18 -79 32 -141 144 -178 100
-33 130 -74 85 -115 -27 -24 -97 -24 -138 0 -31 19 -32 19 -56 -4 -31 -29 -26
-38 31 -63 57 -25 162 -27 199 -4 37 25 64 75 64 120 0 52 -53 105 -135 134
-96 35 -110 44 -113 78 -4 38 14 54 67 61 30 4 48 0 74 -16 l34 -21 27 29 28
29 -43 23 c-54 27 -152 35 -194 16z"/>
<path d="M80 765 l0 -235 40 0 40 0 0 195 0 195 64 0 c53 0 67 -4 90 -25 54
-50 22 -139 -56 -151 -34 -6 -43 -12 -55 -42 -8 -19 -12 -36 -9 -39 12 -12
117 10 147 30 57 39 74 71 74 141 0 54 -4 68 -29 100 -41 54 -77 66 -201 66
l-105 0 0 -235z"/>
<path d="M468 972 c-6 -43 0 -52 38 -52 33 0 34 1 34 40 0 39 -1 40 -34 40
-29 0 -34 -4 -38 -28z"/>
<path d="M1320 765 l0 -235 40 0 40 0 0 235 0 235 -40 0 -40 0 0 -235z"/>
<path d="M1450 765 l0 -235 40 0 40 0 0 100 0 100 83 0 c97 0 131 -14 135 -54
6 -47 -21 -66 -93 -66 -60 0 -61 -1 -73 -33 -7 -18 -12 -36 -12 -40 0 -4 31
-7 70 -7 133 0 197 52 188 151 -4 35 -13 58 -30 77 -22 24 -24 29 -12 52 19
36 17 75 -7 121 -29 58 -63 69 -209 69 l-120 0 0 -235z m252 138 c22 -20 23
-56 2 -77 -11 -12 -36 -16 -95 -16 l-79 0 0 55 0 55 77 0 c57 0 81 -4 95 -17z"/>
<path d="M1880 765 l0 -235 40 0 40 0 0 235 0 235 -40 0 -40 0 0 -235z"/>
<path d="M3010 924 c0 -75 -1 -76 -22 -69 -95 28 -96 29 -151 1 -67 -32 -97
-81 -97 -155 0 -105 65 -173 165 -175 30 0 57 3 60 6 4 4 2 22 -4 40 -10 30
-15 33 -51 33 -71 1 -113 65 -85 132 27 64 108 78 156 27 22 -23 24 -36 27
-130 l4 -104 39 0 39 0 0 235 0 235 -40 0 -40 0 0 -76z"/>
<path d="M4470 920 l0 -81 -32 17 c-79 41 -187 4 -223 -77 -55 -120 20 -250
145 -252 62 -1 74 9 59 49 -10 26 -17 29 -50 29 -76 0 -118 84 -75 149 34 53
103 57 147 10 21 -22 24 -37 27 -130 l4 -104 39 0 39 0 0 235 0 235 -40 0 -40
0 0 -80z"/>
<path d="M4600 960 c0 -39 1 -40 35 -40 34 0 35 1 35 40 0 39 -1 40 -35 40
-34 0 -35 -1 -35 -40z"/>
<path d="M3663 943 c-23 -4 -23 -6 -23 -171 0 -183 4 -198 60 -227 16 -8 49
-15 73 -15 l45 0 -10 40 c-10 37 -13 40 -44 40 -42 0 -56 24 -51 87 4 46 6 48
36 51 31 3 32 5 25 35 -9 43 -12 47 -38 47 -22 0 -23 3 -20 60 4 64 4 64 -53
53z"/>
<path d="M1068 871 c-86 -28 -132 -86 -133 -170 0 -100 70 -173 168 -175 53 0
116 25 124 50 6 18 -54 34 -101 28 -38 -6 -47 -3 -77 25 l-34 30 133 1 132 0
0 43 c0 23 -8 58 -18 77 -33 66 -129 111 -194 91z m90 -91 c51 -31 40 -40 -55
-40 l-86 0 19 21 c37 42 75 48 122 19z"/>
<path d="M2127 870 c-153 -47 -173 -254 -32 -327 46 -24 124 -22 168 6 20 12
37 26 37 30 0 14 -74 31 -110 25 -36 -5 -100 24 -100 46 0 6 49 10 130 10
l130 0 0 37 c0 20 -9 56 -21 80 -34 69 -132 115 -202 93z m113 -105 l25 -25
-88 0 c-95 0 -106 8 -54 41 39 24 82 19 117 -16z"/>
<path d="M2525 870 c-16 -4 -38 -11 -47 -15 -11 -4 -18 -3 -18 4 0 6 -16 11
-35 11 l-35 0 0 -170 0 -170 34 0 34 0 4 111 c3 107 4 112 31 135 36 31 67 30
101 -1 25 -23 26 -28 26 -135 l0 -110 40 0 40 0 0 115 c0 96 -3 122 -20 155
-29 56 -93 85 -155 70z"/>
<path d="M4835 865 c-85 -30 -137 -124 -114 -207 35 -131 201 -176 290 -80 47
49 64 107 49 162 -27 100 -132 159 -225 125z m125 -100 c35 -36 34 -95 -3
-132 -61 -61 -160 -20 -160 66 0 91 98 130 163 66z"/>
<path d="M469 858 c-1 -19 -1 -118 0 -230 l1 -98 35 0 35 0 0 170 0 170 -35 0
c-21 0 -35 -5 -36 -12z"/>
<path d="M580 863 c0 -3 27 -40 60 -80 34 -41 63 -80 66 -87 3 -7 -17 -40 -43
-72 -85 -103 -82 -94 -25 -94 49 0 51 1 88 51 l38 52 20 -24 c12 -14 30 -37
41 -52 19 -25 26 -28 69 -25 l49 3 -62 75 c-33 41 -61 77 -61 80 0 3 29 41 65
85 36 44 65 83 65 88 0 4 -20 7 -44 7 -43 0 -47 -3 -91 -60 -25 -33 -47 -60
-49 -60 -2 0 -24 27 -49 60 -45 58 -49 60 -92 60 -25 0 -45 -3 -45 -7z"/>
<path d="M3840 758 c0 -130 19 -187 74 -215 40 -21 108 -21 140 1 23 14 26 14
26 1 0 -11 11 -15 40 -15 l40 0 0 170 0 170 -40 0 -40 0 0 -100 c0 -109 -10
-142 -47 -159 -37 -17 -58 -13 -87 15 -25 26 -26 31 -26 135 l0 109 -40 0 -40
0 0 -112z"/>
<path d="M4600 700 l0 -170 35 0 35 0 0 170 0 170 -35 0 -35 0 0 -170z"/>
<path d="M560 340 c0 -5 16 -10 35 -10 l35 0 0 -100 c0 -60 4 -100 10 -100 6
0 10 40 10 100 l0 100 35 0 c19 0 35 5 35 10 0 6 -33 10 -80 10 -47 0 -80 -4
-80 -10z"/>
<path d="M760 240 c0 -91 3 -110 15 -110 11 0 15 12 15 45 0 38 3 45 20 45 12
0 29 -16 46 -45 14 -25 32 -45 40 -45 11 0 8 11 -12 46 l-27 45 22 20 c28 26
28 73 -1 93 -13 9 -43 16 -70 16 l-48 0 0 -110z m101 80 c22 -12 25 -43 6 -59
-8 -6 -28 -14 -45 -17 l-32 -6 0 46 c0 43 2 46 26 46 14 0 34 -5 45 -10z"/>
<path d="M990 326 c-51 -136 -68 -196 -55 -196 7 0 19 16 25 36 11 33 14 35
53 32 37 -3 42 -6 51 -35 5 -18 15 -33 23 -33 8 0 12 6 10 13 -3 6 -20 56 -38
110 -34 99 -52 118 -69 73z m50 -98 c0 -5 -14 -8 -31 -8 -28 0 -31 2 -25 25 3
13 11 37 17 52 l11 28 14 -45 c7 -25 14 -48 14 -52z"/>
<path d="M1130 240 c0 -91 3 -110 15 -110 12 0 15 16 15 88 l0 87 51 -87 c69
-120 79 -117 79 22 0 95 -2 110 -16 110 -14 0 -16 -12 -12 -92 2 -53 1 -86 -4
-77 -5 8 -29 49 -54 92 -63 109 -74 104 -74 -33z"/>
<path d="M1368 339 c-18 -10 -24 -54 -10 -75 4 -6 26 -21 50 -33 24 -12 46
-29 49 -37 13 -35 -44 -57 -89 -33 -11 6 -23 8 -26 4 -13 -12 32 -35 68 -35
46 0 73 27 68 67 -2 22 -14 34 -53 55 -52 28 -63 52 -33 72 13 8 26 7 48 -1
24 -9 30 -9 30 2 0 25 -68 34 -102 14z"/>
<path d="M1530 239 c0 -84 3 -110 13 -106 7 2 12 21 12 48 l0 44 43 3 c53 4
56 22 3 22 -46 0 -50 4 -44 48 5 30 7 32 49 32 24 0 44 5 44 10 0 6 -27 10
-60 10 l-60 0 0 -111z"/>
<path d="M1709 324 c-20 -21 -24 -36 -24 -86 0 -53 3 -62 28 -84 31 -26 62
-30 100 -13 60 27 65 153 8 196 -29 22 -85 16 -112 -13z m107 -15 c13 -15 19
-36 19 -69 0 -55 -24 -90 -62 -90 -39 0 -63 33 -63 90 0 37 5 55 20 70 26 26
62 25 86 -1z"/>
<path d="M1910 240 c0 -91 3 -110 15 -110 11 0 15 12 15 45 0 40 2 45 23 45
16 0 29 -12 47 -45 14 -25 30 -45 37 -45 18 0 17 5 -12 50 l-25 39 25 25 c52
53 16 106 -72 106 l-53 0 0 -110z m108 78 c13 -13 16 -54 4 -62 -4 -2 -24 -7
-45 -11 l-37 -7 0 46 c0 45 0 46 33 46 18 0 38 -5 45 -12z"/>
<path d="M2110 240 c0 -67 4 -110 10 -110 6 0 10 38 11 93 l0 92 31 -82 c17
-46 33 -83 37 -83 3 0 20 37 36 83 l30 82 3 -92 c4 -132 22 -117 22 18 0 98
-2 110 -17 107 -10 -2 -25 -29 -41 -75 -25 -76 -36 -88 -48 -50 -23 76 -47
127 -60 127 -11 0 -14 -21 -14 -110z"/>
<path d="M2420 240 c0 -91 3 -110 15 -110 12 0 15 19 15 110 0 91 -3 110 -15
110 -12 0 -15 -19 -15 -110z"/>
<path d="M2510 240 c0 -67 4 -110 10 -110 6 0 10 38 11 93 l0 92 31 -82 c17
-46 34 -81 38 -78 4 3 21 40 36 82 l29 78 3 -92 c4 -132 22 -117 22 18 0 96
-2 110 -16 107 -10 -2 -26 -30 -41 -73 -30 -84 -38 -95 -47 -60 -16 64 -49
135 -62 135 -11 0 -14 -21 -14 -110z"/>
<path d="M2795 338 c-41 -116 -65 -188 -65 -197 0 -24 19 -9 30 25 11 33 14
35 53 32 37 -3 42 -6 51 -35 5 -18 15 -33 24 -33 8 0 12 6 9 12 -2 7 -19 57
-37 111 -31 90 -53 119 -65 85z m39 -85 c7 -32 6 -33 -23 -33 -29 0 -31 2 -25
28 4 15 11 38 16 52 10 24 10 24 18 5 4 -11 11 -35 14 -52z"/>
<path d="M2953 326 c-25 -22 -28 -31 -28 -86 0 -55 3 -64 28 -86 31 -26 94
-33 115 -12 7 7 12 31 12 55 0 42 0 43 -35 43 -19 0 -35 -4 -35 -10 0 -5 12
-10 26 -10 23 0 25 -3 22 -32 -3 -29 -7 -33 -35 -36 -48 -5 -73 25 -73 88 0
74 44 110 100 80 12 -6 21 -7 25 -1 3 6 -3 15 -14 20 -33 18 -78 13 -108 -13z"/>
<path d="M3140 240 l0 -110 65 0 c78 0 88 18 13 22 l-53 3 -3 38 -3 37 46 0
c60 0 57 24 -3 28 -41 3 -42 4 -42 38 l0 34 50 0 c28 0 50 5 50 10 0 6 -27 10
-60 10 l-60 0 0 -110z"/>
<path d="M3327 332 c-35 -39 -18 -72 56 -105 40 -18 49 -45 22 -67 -14 -12
-31 -11 -82 5 -31 10 -29 -9 2 -23 39 -18 83 -14 105 8 37 37 20 72 -52 108
-24 13 -33 24 -33 42 0 20 6 26 28 28 16 2 34 -2 42 -8 8 -7 15 -7 19 -1 4 6
-2 15 -13 20 -30 17 -76 13 -94 -7z"/>
<path d="M3542 332 c3 -10 13 -60 24 -110 14 -70 22 -92 34 -92 12 0 21 21 34
78 10 42 21 83 25 89 4 7 15 -26 25 -73 17 -75 35 -108 51 -92 9 9 47 210 40
216 -11 12 -22 -19 -35 -104 -7 -47 -17 -79 -21 -72 -4 7 -15 48 -24 91 -16
72 -28 97 -42 83 -3 -3 -16 -47 -28 -97 -24 -100 -23 -100 -46 29 -9 51 -17
72 -27 72 -9 0 -13 -7 -10 -18z"/>
<path d="M3820 240 c0 -91 3 -110 15 -110 12 0 15 19 15 110 0 91 -3 110 -15
110 -12 0 -15 -19 -15 -110z"/>
<path d="M3890 340 c0 -5 16 -10 35 -10 l35 0 0 -100 c0 -130 18 -132 22 -2
l3 97 33 3 c64 6 30 22 -48 22 -47 0 -80 -4 -80 -10z"/>
<path d="M4090 240 c0 -91 3 -110 15 -110 11 0 15 12 15 50 l0 50 50 0 50 0 0
-50 c0 -38 4 -50 15 -50 12 0 15 19 15 110 0 91 -3 110 -15 110 -11 0 -15 -12
-15 -45 l0 -45 -50 0 -50 0 0 45 c0 33 -4 45 -15 45 -12 0 -15 -19 -15 -110z"/>
<path d="M4391 253 c-19 -54 -36 -104 -38 -111 -3 -6 1 -12 9 -12 9 0 19 15
24 33 9 29 14 32 51 35 39 3 42 1 53 -32 6 -20 18 -36 25 -36 19 0 -56 214
-76 218 -10 2 -24 -26 -48 -95z m62 30 c3 -16 9 -36 12 -45 6 -15 2 -18 -24
-18 -34 0 -36 6 -20 61 13 43 24 43 32 2z"/>
<path d="M4560 240 c0 -91 3 -110 15 -110 12 0 15 19 15 110 0 91 -3 110 -15
110 -12 0 -15 -19 -15 -110z"/>
</g>
</svg>
